# xmcd CD database file
# Copyright (C) 1993-1998 Ti Kan
# 
# Track frame offsets:
#     150
#     20295
#     40935
#     52910
#     68485
#     78525
#     97695
#     115680
#     130925
#     151772
#     166160
# 
# Disc length: 2502 seconds
# 
# Revision: 1
# Processed by: cddbd v1.4b41PL1 Copyright (c) Steve Scherf et al.
# Submitted via: DiscPlay 4.0.4
# 
DISCID=7209c40b
DTITLE=Verlene Schermer - Comfortable Blues
DYEAR=1900
DGENRE=
TTITLE0=The Actor
TTITLE1=Enough Is Enough
TTITLE2=Opposite Attraction
TTITLE3=What's Making You Blue
TTITLE4=If I Don't Do It
TTITLE5=Blues Of It All
TTITLE6=I Need To Know Him
TTITLE7=Call
TTITLE8=Now I Know
TTITLE9=The Ostrich
TTITLE10=My Own Way
EXTD=
EXTT0=
EXTT1=
EXTT2=
EXTT3=
EXTT4=
EXTT5=
EXTT6=
EXTT7=
EXTT8=
EXTT9=
EXTT10=
PLAYORDER=
